<mxfile host="app.diagrams.net" modified="2024-01-26T15:03:40.930Z" agent="Mozilla/5.0 (Macintosh; Intel Mac OS X 10.15; rv:121.0) Gecko/20100101 Firefox/121.0" version="23.0.2" etag="VruUJUoHwWFf2RAkXn83" type="github">
  <diagram name="Page-1" id="FYbSxj0YoOgTjSIWTPw-">
    <mxGraphModel>
      <root>
        <mxCell id="0" />
        <mxCell id="1" parent="0" />
      </root>
    </mxGraphModel>
  </diagram>
</mxfile>
